<mxfile host="app.diagrams.net" modified="2024-01-25T11:11:51.779Z" agent="Mozilla/5.0 (Windows NT 10.0; Win64; x64) AppleWebKit/537.36 (KHTML, like Gecko) Chrome/120.0.0.0 Safari/537.36" etag="b8YaDETcLZOHXfiZPn0C" version="23.0.0" type="device">
  <diagram name="Page-1" id="J10wN4LTnhzBXKALqojf">
    <mxGraphModel dx="1674" dy="746" grid="1" gridSize="10" guides="1" tooltips="1" connect="1" arrows="1" fold="1" page="1" pageScale="1" pageWidth="827" pageHeight="1169" math="0" shadow="0">
      <root>
        <mxCell id="0" />
        <mxCell id="1" parent="0" />
        <mxCell id="7eDW1lW2Hr1w-lOsqwPJ-1" value="&lt;br&gt;User" style="shape=umlActor;verticalLabelPosition=bottom;verticalAlign=top;html=1;outlineConnect=0;" vertex="1" parent="1">
          <mxGeometry x="10" y="70" width="45" height="90" as="geometry" />
        </mxCell>
        <mxCell id="7eDW1lW2Hr1w-lOsqwPJ-2" value="&lt;font style=&quot;font-size: 24px;&quot;&gt;Rust&lt;br&gt;Tauri&lt;/font&gt;" style="rounded=1;whiteSpace=wrap;html=1;" vertex="1" parent="1">
          <mxGeometry x="200" y="75" width="110" height="85" as="geometry" />
        </mxCell>
        <mxCell id="7eDW1lW2Hr1w-lOsqwPJ-3" value="&lt;span style=&quot;font-size: 24px;&quot;&gt;Java Quarkus&lt;/span&gt;" style="rounded=1;whiteSpace=wrap;html=1;" vertex="1" parent="1">
          <mxGeometry x="475" y="80" width="150" height="80" as="geometry" />
        </mxCell>
        <mxCell id="7eDW1lW2Hr1w-lOsqwPJ-5" value="GET request" style="text;html=1;align=center;verticalAlign=middle;resizable=0;points=[];autosize=1;strokeColor=none;fillColor=none;" vertex="1" parent="1">
          <mxGeometry x="350" y="60" width="90" height="30" as="geometry" />
        </mxCell>
        <mxCell id="7eDW1lW2Hr1w-lOsqwPJ-6" value="Json response" style="text;html=1;align=center;verticalAlign=middle;resizable=0;points=[];autosize=1;strokeColor=none;fillColor=none;" vertex="1" parent="1">
          <mxGeometry x="345" y="145" width="100" height="30" as="geometry" />
        </mxCell>
        <mxCell id="7eDW1lW2Hr1w-lOsqwPJ-8" value="" style="endArrow=none;dashed=1;html=1;dashPattern=1 3;strokeWidth=2;rounded=0;" edge="1" parent="1">
          <mxGeometry width="50" height="50" relative="1" as="geometry">
            <mxPoint x="330" y="200" as="sourcePoint" />
            <mxPoint x="330" y="20" as="targetPoint" />
          </mxGeometry>
        </mxCell>
        <mxCell id="7eDW1lW2Hr1w-lOsqwPJ-11" value="" style="endArrow=none;dashed=1;html=1;dashPattern=1 3;strokeWidth=2;rounded=0;" edge="1" parent="1">
          <mxGeometry width="50" height="50" relative="1" as="geometry">
            <mxPoint x="450" y="200" as="sourcePoint" />
            <mxPoint x="450" y="20" as="targetPoint" />
          </mxGeometry>
        </mxCell>
        <mxCell id="7eDW1lW2Hr1w-lOsqwPJ-12" value="Presentation" style="text;html=1;align=center;verticalAlign=middle;resizable=0;points=[];autosize=1;strokeColor=none;fillColor=none;" vertex="1" parent="1">
          <mxGeometry x="215" y="20" width="90" height="30" as="geometry" />
        </mxCell>
        <mxCell id="7eDW1lW2Hr1w-lOsqwPJ-13" value="Buisness" style="text;html=1;align=center;verticalAlign=middle;resizable=0;points=[];autosize=1;strokeColor=none;fillColor=none;" vertex="1" parent="1">
          <mxGeometry x="515" y="20" width="70" height="30" as="geometry" />
        </mxCell>
        <mxCell id="7eDW1lW2Hr1w-lOsqwPJ-19" value="" style="endArrow=classic;html=1;rounded=0;entryX=0;entryY=0.25;entryDx=0;entryDy=0;" edge="1" parent="1" target="7eDW1lW2Hr1w-lOsqwPJ-2">
          <mxGeometry width="50" height="50" relative="1" as="geometry">
            <mxPoint x="80" y="96" as="sourcePoint" />
            <mxPoint x="95" y="280" as="targetPoint" />
          </mxGeometry>
        </mxCell>
        <mxCell id="7eDW1lW2Hr1w-lOsqwPJ-20" value="" style="endArrow=classic;html=1;rounded=0;exitX=0;exitY=0.75;exitDx=0;exitDy=0;" edge="1" parent="1" source="7eDW1lW2Hr1w-lOsqwPJ-2">
          <mxGeometry width="50" height="50" relative="1" as="geometry">
            <mxPoint x="120" y="145" as="sourcePoint" />
            <mxPoint x="80" y="140" as="targetPoint" />
          </mxGeometry>
        </mxCell>
        <mxCell id="7eDW1lW2Hr1w-lOsqwPJ-21" value="Affichage" style="text;html=1;align=center;verticalAlign=middle;resizable=0;points=[];autosize=1;strokeColor=none;fillColor=none;" vertex="1" parent="1">
          <mxGeometry x="80" y="145" width="70" height="30" as="geometry" />
        </mxCell>
        <mxCell id="7eDW1lW2Hr1w-lOsqwPJ-22" value="Actions &lt;br&gt;utilisateurs" style="text;html=1;align=center;verticalAlign=middle;resizable=0;points=[];autosize=1;strokeColor=none;fillColor=none;" vertex="1" parent="1">
          <mxGeometry x="80" y="50" width="80" height="40" as="geometry" />
        </mxCell>
        <mxCell id="7eDW1lW2Hr1w-lOsqwPJ-23" value="" style="endArrow=none;dashed=1;html=1;dashPattern=1 3;strokeWidth=2;rounded=0;" edge="1" parent="1">
          <mxGeometry width="50" height="50" relative="1" as="geometry">
            <mxPoint x="180" y="200" as="sourcePoint" />
            <mxPoint x="180" y="20" as="targetPoint" />
          </mxGeometry>
        </mxCell>
        <mxCell id="7eDW1lW2Hr1w-lOsqwPJ-26" value="" style="endArrow=classic;html=1;rounded=0;" edge="1" parent="1">
          <mxGeometry width="50" height="50" relative="1" as="geometry">
            <mxPoint x="318.5" y="100" as="sourcePoint" />
            <mxPoint x="468.5" y="100" as="targetPoint" />
          </mxGeometry>
        </mxCell>
        <mxCell id="7eDW1lW2Hr1w-lOsqwPJ-27" value="" style="endArrow=classic;html=1;rounded=0;" edge="1" parent="1">
          <mxGeometry width="50" height="50" relative="1" as="geometry">
            <mxPoint x="467" y="140" as="sourcePoint" />
            <mxPoint x="317" y="140" as="targetPoint" />
          </mxGeometry>
        </mxCell>
        <mxCell id="7eDW1lW2Hr1w-lOsqwPJ-28" value="&lt;span style=&quot;font-size: 24px;&quot;&gt;Database&lt;br&gt;Postgres&lt;br&gt;&lt;/span&gt;" style="rounded=1;whiteSpace=wrap;html=1;" vertex="1" parent="1">
          <mxGeometry x="800" y="80" width="150" height="80" as="geometry" />
        </mxCell>
        <mxCell id="7eDW1lW2Hr1w-lOsqwPJ-29" value="Persistence" style="text;html=1;align=center;verticalAlign=middle;resizable=0;points=[];autosize=1;strokeColor=none;fillColor=none;" vertex="1" parent="1">
          <mxGeometry x="830" y="20" width="90" height="30" as="geometry" />
        </mxCell>
        <mxCell id="7eDW1lW2Hr1w-lOsqwPJ-32" value="" style="endArrow=none;dashed=1;html=1;dashPattern=1 3;strokeWidth=2;rounded=0;" edge="1" parent="1">
          <mxGeometry width="50" height="50" relative="1" as="geometry">
            <mxPoint x="660" y="200" as="sourcePoint" />
            <mxPoint x="660" y="20" as="targetPoint" />
          </mxGeometry>
        </mxCell>
        <mxCell id="7eDW1lW2Hr1w-lOsqwPJ-33" value="" style="endArrow=none;dashed=1;html=1;dashPattern=1 3;strokeWidth=2;rounded=0;" edge="1" parent="1">
          <mxGeometry width="50" height="50" relative="1" as="geometry">
            <mxPoint x="770" y="200" as="sourcePoint" />
            <mxPoint x="770" y="20" as="targetPoint" />
          </mxGeometry>
        </mxCell>
        <mxCell id="7eDW1lW2Hr1w-lOsqwPJ-34" value="" style="endArrow=classic;html=1;rounded=0;" edge="1" parent="1">
          <mxGeometry width="50" height="50" relative="1" as="geometry">
            <mxPoint x="641.5" y="100" as="sourcePoint" />
            <mxPoint x="790" y="100" as="targetPoint" />
          </mxGeometry>
        </mxCell>
        <mxCell id="7eDW1lW2Hr1w-lOsqwPJ-35" value="" style="endArrow=classic;html=1;rounded=0;" edge="1" parent="1">
          <mxGeometry width="50" height="50" relative="1" as="geometry">
            <mxPoint x="790" y="140" as="sourcePoint" />
            <mxPoint x="640" y="140" as="targetPoint" />
          </mxGeometry>
        </mxCell>
        <mxCell id="7eDW1lW2Hr1w-lOsqwPJ-36" value="persist entity" style="text;html=1;align=center;verticalAlign=middle;resizable=0;points=[];autosize=1;strokeColor=none;fillColor=none;" vertex="1" parent="1">
          <mxGeometry x="670" y="60" width="90" height="30" as="geometry" />
        </mxCell>
        <mxCell id="7eDW1lW2Hr1w-lOsqwPJ-37" value="get entity" style="text;html=1;align=center;verticalAlign=middle;resizable=0;points=[];autosize=1;strokeColor=none;fillColor=none;" vertex="1" parent="1">
          <mxGeometry x="680" y="145" width="70" height="30" as="geometry" />
        </mxCell>
      </root>
    </mxGraphModel>
  </diagram>
</mxfile>
